# xmcd
#
# Track frame offsets:
#	150
#	11395
#	24580
#	38703
#	51549
#	65004
#	76312
#	89152
#	103497
#	114349
#	126328
#	138566
#	150847
#	164392
#	177692
#	190336
#
# Disc length: 2706 seconds
#
# Revision: 1
# Processed by: cddbd v1.5.2PL0 Copyright (c) Steve Scherf et al.
# Submitted via: audiograbber 1.83.01
#
DISCID=e20a9010
DTITLE=Josephine Baker - Josephine Baker-Voices Of The World [CD 01)
DYEAR=1900
DGENRE=
TTITLE0=After I Say I'm Sorry
TTITLE1=Breezing Along With The Breeze
TTITLE2=Bye Bye Blackbird
TTITLE3=Dinah
TTITLE4=I Love Dancing
TTITLE5=I Love My Baby
TTITLE6=I Wonder Where My Baby Is Tonight
TTITLE7=Lonesome Lovesick Blues
TTITLE8=Pardon Si Je T'importune
TTITLE9=Partir Sur Un Bateau Tout Blanc
TTITLE10=Pretty Little Baby
TTITLE11=Sous Le Ciel D'Afrique
TTITLE12=Tes Mots D'amour
TTITLE13=That Certain Feeling
TTITLE14=Then I'll Be Happy
TTITLE15=Toc Toc Partout
EXTD=
EXTT0=
EXTT1=
EXTT2=
EXTT3=
EXTT4=
EXTT5=
EXTT6=
EXTT7=
EXTT8=
EXTT9=
EXTT10=
EXTT11=
EXTT12=
EXTT13=
EXTT14=
EXTT15=
PLAYORDER=
